<?xml version="1.0" encoding="UTF-8" standalone="no"?>
<svg
   xmlns:dc="http://purl.org/dc/elements/1.1/"
   xmlns:cc="http://creativecommons.org/ns#"
   xmlns:rdf="http://www.w3.org/1999/02/22-rdf-syntax-ns#"
   xmlns:svg="http://www.w3.org/2000/svg"
   xmlns="http://www.w3.org/2000/svg"
   xmlns:sodipodi="http://sodipodi.sourceforge.net/DTD/sodipodi-0.dtd"
   xmlns:inkscape="http://www.inkscape.org/namespaces/inkscape"
   width="127mm"
   height="35mm"
   viewBox="0 0 127 35"
   version="1.1"
   id="svg186"
   inkscape:version="1.0.1 (3bc2e813f5, 2020-09-07)"
   sodipodi:docname="loader.svg">
  <defs
     id="defs180" />
  <sodipodi:namedview
     id="base"
     pagecolor="#ffffff"
     bordercolor="#666666"
     borderopacity="1.0"
     inkscape:pageopacity="0.0"
     inkscape:pageshadow="2"
     inkscape:zoom="1.979899"
     inkscape:cx="324.07009"
     inkscape:cy="180.05965"
     inkscape:document-units="mm"
     inkscape:current-layer="layer1"
     inkscape:document-rotation="0"
     showgrid="false"
     inkscape:window-width="1617"
     inkscape:window-height="1040"
     inkscape:window-x="56"
     inkscape:window-y="52"
     inkscape:window-maximized="0" />
  <metadata
     id="metadata183">
    <rdf:RDF>
      <cc:Work
         rdf:about="">
        <dc:format>image/svg+xml</dc:format>
        <dc:type
           rdf:resource="http://purl.org/dc/dcmitype/StillImage" />
        <dc:title></dc:title>
      </cc:Work>
    </rdf:RDF>
  </metadata>
  <g
     inkscape:label="Шар 1"
     inkscape:groupmode="layer"
     id="layer1">
    <path
       d="M 57.03075,6.6841392 V 12.44641 h 1.16029 V 5.6212192 h -5.6261 V 12.44641 H 53.7351 V 6.6841392 Z m 7.34201,5.7622708 h 1.29681 L 62.33512,5.2409292 59.00031,12.44641 h 1.29681 l 0.77999,-1.75507 h 2.51566 z m -2.03764,-4.8944408 0.92604,2.1643 h -1.85244 z m 5.3915,0.74084 2.0768,3.5200108 2.08668,-3.5200108 0.46814,4.1536008 h 1.18957 l -0.93593,-7.1663208 -2.80846,4.63126 -2.79823,-4.63126 -0.93592,7.1663208 h 1.18956 z m 6.47453,-2.67159 -0.46778,3.0032 h 0.71155 l 0.93627,-3.0032 z m 6.73735,0 h -2.11561 c -1.4919,0 -2.44757,0.84843 -2.44757,2.12549 0,0.98495 0.5655,1.70638 1.5113,1.98931 L 75.96574,12.44641 h 1.38466 l 1.72578,-2.5837408 h 0.70203 V 12.44641 h 1.16029 z m -2.06693,3.28577 c -0.78986,0 -1.31621,-0.40922 -1.31621,-1.14053 0,-0.73131 0.52635,-1.14088 1.31621,-1.14088 h 0.90664 v 2.28141 z m 2.88608,-2.22285 h 1.79423 V 12.44641 h 1.16028 V 6.6841392 h 1.80376 v -1.06292 h -4.75827 z m 5.58694,-1.06292 V 12.44641 h 1.17969 V 9.2678892 l 2.65218,3.1785208 h 1.41358 l -3.0226,-3.6269108 2.87655,-3.19828 h -1.38465 l -2.53506,2.83739 v -2.83739 z m 7.16633,0 H 93.37991 V 12.7879 L 98.36219,7.9223892 V 12.44641 h 1.13136 V 5.2800892 l -4.98263,4.8655098 z"
       fill="#58bf9c"
       id="path92"
       style="isolation:isolate;stroke-width:0.352777" />
    <path
       d="m 59.9641,18.6165 v 9.64035 h 1.94133 V 16.8385 h -9.41211 v 11.41835 h 1.95757 V 18.6165 Z m 3.86609,3.931 c 0,3.40924 2.4959,5.95383 5.92137,5.95383 3.42547,0 5.93761,-2.54459 5.93761,-5.95383 0,-3.40925 -2.52836,-5.9048 -5.93761,-5.9048 -3.39301,0 -5.92137,2.49555 -5.92137,5.9048 z m 2.03905,0 c 0,-2.3488 1.61502,-4.06153 3.88232,-4.06153 2.29976,0 3.88232,1.71273 3.88232,4.06153 0,2.34915 -1.61501,4.06188 -3.88232,4.06188 -2.2673,0 -3.88232,-1.71273 -3.88232,-4.06188 z m 20.58564,-5.709 h -8.40069 v 7.01392 c 0,1.59879 -0.58738,2.75696 -1.59879,2.75696 v 1.64747 c 2.3816,0 3.49109,-1.71273 3.49109,-4.2739 V 18.6165 h 4.55083 v 9.64035 h 1.95756 z m 1.41888,1.778 h 3.00143 v 9.64035 h 1.94098 V 18.6165 h 3.01766 v -1.778 h -7.96007 z m 15.47988,9.64035 h 2.16958 L 99.9444,16.20209 94.36593,28.25685 h 2.16923 l 1.30492,-2.93617 h 4.20864 z m -3.40924,-8.18867 1.54975,3.62126 H 98.395 Z m 14.64804,4.89373 c 0,-1.59879 -1.02764,-2.51213 -2.43029,-2.88749 1.10913,-0.40781 1.778,-1.22343 1.778,-2.36502 0,-1.94133 -1.48449,-2.8709 -3.65407,-2.8709 h -3.4417 v 11.41835 h 3.63749 c 2.39783,0 4.11057,-1.02764 4.11057,-3.29494 z m -4.43689,-6.54121 c 1.06045,0 1.81081,0.55457 1.81081,1.50072 0,0.94615 -0.75036,1.50072 -1.81081,1.50072 h -1.38642 V 18.4207 Z m -1.38642,8.25395 v -3.7518 h 1.59844 c 1.30493,0 2.25108,0.60361 2.25108,1.84327 0,1.27211 -0.94615,1.90853 -2.25108,1.90853 z m 9.75466,-9.83615 h -1.8923 v 11.98915 l 8.33543,-8.13964 v 7.56884 h 1.8923 v -11.9895 l -8.33543,8.13964 z"
       fill="#5d5ea8"
       id="path94"
       style="isolation:isolate;stroke-width:0.352777" />
    <path
       d="m 13.997154,29.13809 h -2.661003 c -0.09737,0 -0.176389,-0.079 -0.176389,-0.17639 0,-0.0977 0.07902,-0.17639 0.176389,-0.17639 h 2.484614 V 11.03177 c 0,-0.0977 0.07902,-0.17638 0.176389,-0.17638 h 0.950383 l 5.525911,0.67415 v -1.131361 c 0,-0.079 0.05221,-0.14816 0.127706,-0.16968 L 22.37492,9.7219092 c 0.02822,-0.008 0.05786,-0.009 0.08608,-0.003 l 8.74324,1.9007708 c 0.0811,0.0173 0.139,0.0889 0.139,0.17215 v 1.45733 c 0,0.0974 -0.079,0.17639 -0.17639,0.17639 -0.0974,0 -0.17639,-0.079 -0.17639,-0.17639 V 11.934 L 22.42925,10.073099 20.826228,10.531 v 1.19733 c 0,0.0508 -0.02187,0.0984 -0.05962,0.13194 -0.0381,0.0339 -0.08819,0.0511 -0.138289,0.043 l -5.701947,-0.69674 -0.752827,10e-4 v 17.7539 c 0,0.0974 -0.07902,0.17639 -0.176389,0.17639 z"
       fill="#5d5ea8"
       id="path96"
       style="isolation:isolate;stroke-width:0.352777" />
    <path
       d="m 32.75082,14.6294 c -0.0296,0 -0.0593,-0.007 -0.0868,-0.0229 l -4.320823,-2.44016 -5.700888,0.94015 -2.816225,0.002 c -0.09772,0 -0.176389,-0.0787 -0.176389,-0.17639 0,-0.0974 0.07867,-0.17639 0.176389,-0.17639 h 2.78765 l 5.733696,-0.94756 c 0.03881,-0.007 0.08043,7.2e-4 0.115359,0.0201 l 4.374801,2.47086 c 0.085,0.048 0.115,0.15593 0.067,0.24059 -0.0325,0.0572 -0.0924,0.0896 -0.15381,0.0896 z"
       fill="#5d5ea8"
       id="path98"
       style="isolation:isolate;stroke-width:0.352777" />
    <path
       d="m 16.278215,29.13809 c -0.09737,0 -0.176389,-0.079 -0.176389,-0.17639 V 18.06405 c 0,-0.0974 0.07902,-0.17639 0.176389,-0.17639 h 3.104444 c 0.09737,0 0.176389,0.079 0.176389,0.17639 v 10.58051 c 0,0.0977 -0.07902,0.17639 -0.176389,0.17639 -0.09772,0 -0.176389,-0.0787 -0.176389,-0.17639 V 18.24044 H 16.454604 V 28.9617 c 0,0.0974 -0.07902,0.17639 -0.176389,0.17639 z"
       fill="#5d5ea8"
       id="path100"
       style="isolation:isolate;stroke-width:0.352777" />
    <path
       d="m 22.550251,29.13809 c -0.04198,0 -0.0829,-0.0152 -0.115359,-0.043 -0.03845,-0.0335 -0.06103,-0.0822 -0.06103,-0.13335 V 14.07276 c 0,-0.0512 0.02223,-0.0995 0.06068,-0.133 0.0388,-0.0335 0.0896,-0.0469 0.140405,-0.0416 l 8.616243,1.20403 c 0.0871,0.012 0.15205,0.0868 0.15205,0.17463 v 12.92472 c 0,0.0931 -0.0727,0.17039 -0.16581,0.17603 l -1.393822,0.0843 c -0.04763,0.005 -0.09631,-0.0145 -0.131586,-0.0476 -0.03563,-0.0335 -0.05539,-0.0797 -0.05539,-0.12841 V 16.77155 l -5.30719,-0.57997 v 8.40423 l 1.589264,-0.0688 -0.04092,-6.25052 c 0.04304,-0.24236 0.09243,-0.8449 -0.154517,-1.13206 -0.10548,-0.12348 -0.261055,-0.18133 -0.464961,-0.1711 -0.104775,-0.003 -0.179564,-0.0727 -0.183444,-0.16933 -0.0035,-0.0977 0.07232,-0.17957 0.169686,-0.18345 0.320322,-0.0134 0.569383,0.0875 0.747183,0.29457 0.408164,0.4766 0.242711,1.35678 0.235656,1.39418 l 0.04516,6.38528 c 7.15e-4,0.0949 -0.07408,0.17321 -0.16898,0.17744 l -1.9431,0.0843 c -0.04904,-3.4e-4 -0.0949,-0.0159 -0.12947,-0.0487 -0.03457,-0.0335 -0.05433,-0.0794 -0.05433,-0.1277 v -8.78527 c 0,-0.0501 0.02117,-0.0977 0.05856,-0.13123 0.03739,-0.0335 0.08608,-0.0487 0.13723,-0.0441 l 5.659968,0.61877 c 0.0889,0.01 0.156985,0.0854 0.156985,0.17533 v 11.48503 l 1.041048,-0.0632 V 15.42985 L 22.72664,14.27557 V 28.7578 l 1.535994,-0.22437 c 0.09455,-0.0109 0.185561,0.0526 0.200025,0.14923 0.01376,0.0963 -0.05256,0.18591 -0.149225,0.20002 l -1.737783,0.25365 c -0.0085,10e-4 -0.01658,0.002 -0.0254,0.002 z"
       fill="#5d5ea8"
       id="path102"
       style="isolation:isolate;stroke-width:0.352777" />
    <path
       d="m 29.05512,24.78764 c -0.09772,0 -0.176389,-0.079 -0.176389,-0.17639 v -6.5472 c 0,-0.57045 -0.08043,-0.87948 -0.502709,-0.87948 -0.481541,0 -0.674862,0.58103 -0.707318,0.69215 v 6.73453 c 0,0.0974 -0.07902,0.17639 -0.17639,0.17639 -0.09737,0 -0.176387,-0.079 -0.176387,-0.17639 v -6.75852 c 0,-0.0138 0.0019,-0.0279 0.0049,-0.0416 0.0099,-0.0399 0.246946,-0.97931 1.055158,-0.97931 0.855488,0 0.855488,0.8636 0.855488,1.23225 v 6.54721 c 0,0.0974 -0.07902,0.17639 -0.17639,0.17639 z"
       fill="#5d5ea8"
       id="path104"
       style="isolation:isolate;stroke-width:0.352777" />
    <path
       d="m 21.252029,14.6294 c -0.0099,0 -0.0194,-7.1e-4 -0.02893,-0.002 l -6.008511,-0.99272 c -0.09596,-0.0155 -0.16122,-0.10619 -0.145345,-0.2025 0.01552,-0.0963 0.108303,-0.16228 0.202495,-0.14534 l 6.008511,0.99271 c 0.09596,0.0159 0.161219,0.10619 0.145344,0.2025 -0.01411,0.0864 -0.0889,0.14781 -0.173566,0.14781 z"
       fill="#5d5ea8"
       id="path106"
       style="isolation:isolate;stroke-width:0.352777" />
    <path
       d="m 13.089104,11.01766 c -7.15e-4,0 -0.0018,0 -0.0028,0 -0.09701,-10e-4 -0.174978,-0.0815 -0.173567,-0.17886 0.0018,-0.121 0.06844,-2.9809708 2.231319,-4.4513508 2.188281,-1.48801 4.839759,-2.02106 5.236634,-2.0574 0.178858,-0.0159 0.385939,-0.11183 0.605366,-0.21343 0.295981,-0.13687 0.605014,-0.27869 0.904522,-0.25082 0.28187,0.0254 0.553862,0.16863 0.79375,0.29457 0.192264,0.10089 0.374298,0.1965 0.519289,0.21272 0.294217,0.0325 3.890787,0.83221 5.199593,2.25178 1.264357,1.37125 1.815394,3.9038398 1.837971,4.0110908 0.01236,0.0586 -0.006,0.11959 -0.04868,0.16228 -0.04268,0.0423 -0.104068,0.0593 -0.162629,0.0466 l -8.07123,-1.8079908 -6.085769,1.3433698 c -0.09631,0.0212 -0.189442,-0.0392 -0.210256,-0.13441 -0.02117,-0.0949 0.03916,-0.18908 0.134409,-0.21025 l 6.124222,-1.3514898 c 0.02505,-0.005 0.05151,-0.005 0.07655,0 l 7.832726,1.7543598 C 29.652727,9.7494592 29.109095,7.9107792 28.144247,6.8640892 c -1.16205,-1.26012 -4.502502,-2.08774 -4.97981,-2.14031 -0.211314,-0.024 -0.42157,-0.13405 -0.644172,-0.25117 -0.221192,-0.11607 -0.449792,-0.23601 -0.661459,-0.25541 -0.212372,-0.0183 -0.471311,0.10195 -0.724605,0.21978 -0.237067,0.10971 -0.482247,0.22295 -0.721784,0.24482 -0.382411,0.0346 -2.942872,0.5514 -5.069769,1.99743 -2.01295,1.36878 -2.076803,4.1370308 -2.077155,4.1649008 -0.0014,0.0967 -0.08043,0.17356 -0.176389,0.17356 z"
       fill="#5d5ea8"
       id="path108"
       style="isolation:isolate;stroke-width:0.352777" />
    <path
       d="m 7.5138035,28.88445 h -0.997303 c -0.09737,0 -0.176389,-0.079 -0.176389,-0.17639 V 13.95665 c 0,-0.0924 0.07091,-0.16898 0.162984,-0.17603 l 6.5726025,-0.49636 c 0.100542,-0.008 0.181681,0.066 0.189442,0.16263 0.0071,0.0974 -0.06562,0.18203 -0.162631,0.18944 l -6.4096195,0.48401 v 14.41133 h 0.644525 V 17.59979 c 0,-0.0977 0.07902,-0.17639 0.176389,-0.17639 h 3.4212395 c 0.09737,0 0.175683,0.0783 0.176388,0.17533 l 0.04233,7.01146 c 3.44e-4,0.0469 -0.01834,0.0921 -0.05151,0.12524 -0.03316,0.0335 -0.07832,0.0522 -0.124883,0.0522 H 9.1189425 c -0.09666,0 -0.175331,-0.078 -0.176389,-0.17463 l -0.04233,-4.73075 c -3.44e-4,-0.0487 0.01905,-0.0949 0.05362,-0.12876 0.03457,-0.0328 0.07937,-0.0512 0.129822,-0.0494 l 1.0555115,0.0423 c 0.09701,0.004 0.172861,0.0861 0.168981,0.18344 -0.0039,0.0974 -0.08678,0.17145 -0.183445,0.16934 l -0.8699505,-0.0353 0.03881,4.37091 H 10.799935 L 10.759715,17.7761 H 7.6901975 v 10.93188 c 0,0.0974 -0.07867,0.17639 -0.176389,0.17639 z"
       fill="#5d5ea8"
       id="path110"
       style="isolation:isolate;stroke-width:0.352777" />
    <path
       d="m 32.1384,28.46217 c -0.0448,0 -0.0878,-0.0169 -0.12065,-0.048 -0.0356,-0.0332 -0.0557,-0.0797 -0.0557,-0.12841 V 17.1775 c 0,-0.0977 0.079,-0.17639 0.17639,-0.17639 0.0974,0 0.17639,0.0787 0.17639,0.17639 v 10.92023 l 7.63023,-0.48436 V 18.2189 l -1.25342,-0.1651 -0.0413,7.10706 c -8e-4,0.0921 -0.0716,0.16827 -0.16369,0.17497 l -5.19536,0.38065 c -0.0494,0.006 -0.097,-0.0138 -0.13264,-0.0469 -0.036,-0.0335 -0.0564,-0.0804 -0.0564,-0.12912 v -8.11 c 0,-0.0497 0.0215,-0.0977 0.0586,-0.13124 0.037,-0.0332 0.0868,-0.049 0.13687,-0.0441 l 1.56281,0.16934 c 0.0896,0.01 0.15734,0.0854 0.15734,0.17533 v 6.83507 h 0.6611 v -6.66645 c 0,-0.049 0.0208,-0.096 0.0568,-0.12947 0.0363,-0.0335 0.0857,-0.049 0.1337,-0.0462 l 1.05587,0.0847 c 0.0907,0.007 0.16122,0.0822 0.16228,0.17322 l 0.0825,6.45724 h 0.3683 l 0.0413,-6.4135 c 7.9e-4,-0.0977 0.0801,-0.18556 0.17744,-0.17533 0.0974,7.2e-4 0.17604,0.0801 0.17534,0.17745 l -0.0423,6.58883 c -8e-4,0.0974 -0.0797,0.17533 -0.17639,0.17533 h -0.71826 c -0.0963,0 -0.17498,-0.0773 -0.17639,-0.17392 l -0.0822,-6.47065 -0.7052,-0.0565 v 6.65163 c 0,0.0974 -0.079,0.17639 -0.17639,0.17639 h -1.01388 c -0.0974,0 -0.17639,-0.079 -0.17639,-0.17639 v -6.85306 l -1.21004,-0.13124 v 7.72372 l 4.84364,-0.35454 0.0413,-7.1441 c 2.7e-4,-0.0508 0.0222,-0.0988 0.0607,-0.13194 0.0378,-0.0332 0.0868,-0.048 0.13865,-0.042 l 1.60514,0.21096 c 0.0878,0.0116 0.15345,0.0864 0.15345,0.17498 v 9.71479 c 0,0.0931 -0.0723,0.17039 -0.16545,0.17604 l -7.98301,0.50694 c -0.003,2.6e-4 -0.007,2.6e-4 -0.0109,2.6e-4 z"
       fill="#5d5ea8"
       id="path112"
       style="isolation:isolate;stroke-width:0.352777" />
    <path
       d="m 40.25828,16.59332 c -0.007,0 -0.0148,-3.5e-4 -0.0222,-10e-4 l -7.22277,-0.91864 c -0.0963,-0.0123 -0.16475,-0.10054 -0.1524,-0.19755 0.0124,-0.0963 0.0995,-0.1651 0.1972,-0.1524 l 7.14834,0.90946 0.29633,-0.23883 -7.82955,-3.85375 c -0.0854,-0.0416 -0.12171,-0.14287 -0.0836,-0.2293 0.0279,-0.0632 0.70097,-1.550461 2.22674,-2.1826408 1.46332,-0.60607 3.03812,-0.79481 3.44628,-0.79481 0.36583,0 3.63997,0.71544 4.66549,2.2316708 0.9839,1.45486 1.1624,2.82822 1.16946,2.88573 0.007,0.0565 -0.0138,0.11253 -0.0554,0.15134 -0.0416,0.0381 -0.0981,0.0543 -0.15487,0.0434 l -4.15572,-0.84984 -2.4765,0.24024 c -0.0335,0.002 -0.066,-0.003 -0.0952,-0.0173 l -1.10808,-0.54928 c -0.0709,-0.0353 -0.10971,-0.11218 -0.0956,-0.18979 0.0141,-0.0776 0.078,-0.13617 0.15628,-0.14358 l 3.21769,-0.32032 c -0.12771,-0.86255 -0.41769,-2.139951 -0.74895,-2.381961 -0.0787,-0.0575 -0.096,-0.1679198 -0.0384,-0.2465898 0.0579,-0.0783 0.16828,-0.0952 0.24624,-0.0381 0.59338,0.4332098 0.88442,2.5604608 0.91581,2.8014108 0.006,0.0473 -0.007,0.0952 -0.0367,0.13264 -0.0296,0.0374 -0.0734,0.061 -0.12065,0.0656 l -2.78871,0.27728 0.51259,0.254 2.45286,-0.23812 c 0.0173,-10e-4 0.0349,-7.1e-4 0.0522,0.003 l 3.92642,0.80292 c -0.0956,-0.4505 -0.37077,-1.45591 -1.0668,-2.48496 -0.91687,-1.355731 -4.05553,-2.0764608 -4.37338,-2.0764608 -0.3736,0 -1.91453,0.18909 -3.31118,0.7679998 -1.1243,0.46567 -1.75577,1.467561 -1.9625,1.848211 l 7.91739,3.89713 c 0.0543,0.0265 0.091,0.079 0.0977,0.139 0.006,0.0596 -0.018,0.11888 -0.0649,0.15663 l -0.57009,0.45932 c -0.0314,0.0251 -0.0706,0.0388 -0.11077,0.0388 z"
       fill="#5d5ea8"
       id="path114"
       style="isolation:isolate;stroke-width:0.352777" />
    <path
       d="m 45.40108,17.18457 c -0.007,0 -0.0134,-3.4e-4 -0.0205,-0.001 l -3.42124,-0.39476 c -0.097,-0.0113 -0.16616,-0.0988 -0.15522,-0.19579 0.0113,-0.0967 0.10054,-0.16333 0.19579,-0.15487 l 3.37644,0.38947 0.60148,-0.24412 -2.07821,-1.24213 -2.12161,0.65264 c -0.0945,0.0303 -0.19191,-0.0233 -0.22048,-0.11642 -0.0289,-0.0935 0.0233,-0.19191 0.11641,-0.22049 l 2.19675,-0.67557 c 0.0483,-0.0152 0.0991,-0.008 0.14252,0.0169 l 2.44969,1.46333 c 0.0571,0.0346 0.0903,0.0984 0.0857,0.1651 -0.005,0.0667 -0.0476,0.12488 -0.10971,0.14993 l -0.97155,0.39475 c -0.0212,0.008 -0.0437,0.013 -0.0663,0.013 z"
       fill="#5d5ea8"
       id="path116"
       style="isolation:isolate;stroke-width:0.352777" />
    <path
       d="m 44.93647,28.34575 c -0.007,0 -0.0152,-2.6e-4 -0.0226,-10e-4 L 41.197,27.86956 c -0.0882,-0.0113 -0.15416,-0.0861 -0.15416,-0.17498 v -8.36306 c -0.005,-0.1083 -0.0198,-0.70132 0.22543,-0.95779 0.0787,-0.0829 0.17886,-0.12664 0.28892,-0.12664 0.45191,0 0.76765,0.48506 0.76765,1.17968 0,0.45403 0.0166,3.77966 0.0201,4.58611 h 0.55597 v -4.58611 c -0.005,-0.10089 -0.0194,-0.65616 0.22508,-0.88582 0.0854,-0.0804 0.1912,-0.11606 0.30903,-0.10266 0.41592,0.0466 0.66393,0.49883 0.66393,1.21003 v 4.49827 c 0,0.0977 -0.0787,0.17639 -0.17639,0.17639 -0.0974,0 -0.17639,-0.0787 -0.17639,-0.17639 v -4.49827 c 0,-0.40852 -0.10795,-0.83256 -0.35031,-0.85937 -0.11853,0.0938 -0.15275,0.42334 -0.14252,0.629 l 2.6e-4,4.77132 c 0,0.0974 -0.079,0.17639 -0.17639,0.17639 h -0.9077 c -0.097,0 -0.17603,-0.0787 -0.17638,-0.17568 0,0 -0.0212,-4.24603 -0.0212,-4.76321 0,-0.40675 -0.15523,-0.82691 -0.41487,-0.82691 -0.007,0 -0.0173,0 -0.0342,0.0173 -0.10372,0.10866 -0.13723,0.48542 -0.1277,0.70662 l 2.6e-4,8.21549 3.56306,0.45543 c 0.0963,0.0124 0.16474,0.10054 0.1524,0.1972 -0.0113,0.0889 -0.0871,0.15417 -0.17463,0.15417 z"
       fill="#5d5ea8"
       id="path118"
       style="isolation:isolate;stroke-width:0.352777" />
    <path
       d="m 44.93612,28.34575 c -0.0974,0 -0.17639,-0.079 -0.17639,-0.17639 v -9.85167 c 0,-0.0974 0.079,-0.17639 0.17639,-0.17639 0.0977,0 0.17639,0.079 0.17639,0.17639 v 9.85167 c 0,0.0974 -0.0787,0.17639 -0.17639,0.17639 z"
       fill="#5d5ea8"
       id="path120"
       style="isolation:isolate;stroke-width:0.352777" />
    <path
       d="m 6.5165005,13.39397 c -0.0575,0 -0.113947,-0.0282 -0.147814,-0.0804 -0.05292,-0.0815 -0.02999,-0.19085 0.05186,-0.24376 l 1.170517,-0.76095 v -1.12183 h -0.837494 c -0.07267,0 -0.137936,-0.0445 -0.164395,-0.11183 -0.02646,-0.0681 -0.0085,-0.14464 0.04445,-0.19403 l 1.689453,-1.5628108 c 0.02434,-0.0222 0.05468,-0.0377 0.08749,-0.0437 l 3.6325535,-0.67592 c 0.08396,-0.0152 0.162983,0.0286 0.195086,0.10477 0.0321,0.0765 0.0067,0.16475 -0.06103,0.21273 l -1.792112,1.2657598 2.043289,-0.0656 c 0.103717,-10e-4 0.178858,0.0737 0.18168,0.17074 0.0032,0.0974 -0.07338,0.17886 -0.170744,0.18203 l -2.6310175,0.0843 c -0.08573,-0.006 -0.147813,-0.0469 -0.172508,-0.120291 -0.02469,-0.0741 0.0018,-0.15523 0.06526,-0.20003 l 1.6146645,-1.1405298 -2.7904725,0.51929 -1.321153,1.2223808 h 0.563386 c 0.09737,0 0.176389,0.079 0.176389,0.17639 v 1.39382 c 0,0.0596 -0.03034,0.11536 -0.08043,0.14782 l -1.25095,0.81315 c -0.02963,0.0191 -0.06279,0.0286 -0.09596,0.0286 z"
       fill="#5d5ea8"
       id="path122"
       style="isolation:isolate;stroke-width:0.352777" />
    <path
       d="m 10.639768,12.6228 c -0.04374,0 -0.08573,-0.0159 -0.118181,-0.0455 -0.03739,-0.0332 -0.05821,-0.0808 -0.05821,-0.13088 v -1.45168 c 0,-0.0974 0.07867,-0.17639 0.176389,-0.17639 0.09737,0 0.176388,0.079 0.176388,0.17639 v 1.25624 l 2.254603,-0.23283 c 0.09278,-0.0113 0.183797,0.0596 0.193675,0.15698 0.0099,0.097 -0.06033,0.18345 -0.156986,0.19368 l -2.449689,0.25294 c -0.006,7.2e-4 -0.01235,10e-4 -0.01799,10e-4 z"
       fill="#5d5ea8"
       id="path124"
       style="isolation:isolate;stroke-width:0.352777" />
    <path
       d="m 15.243165,29.13809 c -0.09737,0 -0.176389,-0.079 -0.176389,-0.17639 V 14.81179 c 0,-0.0512 0.02258,-0.0998 0.06103,-0.1337 0.03951,-0.0328 0.09066,-0.0462 0.141464,-0.0409 l 6.008159,0.88723 c 0.08643,0.013 0.150636,0.0871 0.150636,0.17463 v 13.11451 c 0,0.0501 -0.02117,0.0974 -0.05821,0.13088 -0.03739,0.0335 -0.08714,0.0501 -0.136172,0.0444 l -1.024467,-0.10548 c -0.08996,-0.009 -0.158397,-0.085 -0.158397,-0.17533 V 16.76721 l -3.796241,-0.51365 c -0.09666,-0.013 -0.164042,-0.1016 -0.150989,-0.19826 0.0127,-0.097 0.100189,-0.16722 0.198261,-0.15099 l 3.949347,0.53446 c 0.08749,0.0116 0.1524,0.0864 0.1524,0.17462 v 11.93553 l 0.671689,0.0691 V 15.85135 l -5.655732,-0.83537 v 13.94565 c 0,0.0974 -0.07867,0.17639 -0.176389,0.17639 z"
       fill="#5d5ea8"
       id="path126"
       style="isolation:isolate;stroke-width:0.352777" />
    <path
       d="m 3.9327565,35.25738 c -0.09701,0 -0.175684,-0.0783 -0.176389,-0.17569 L 3.5274145,0.86294921 c -7.14e-4,-0.097 0.07796,-0.17674 0.175331,-0.17744 3.44e-4,0 7.14e-4,0 0.0011,0 0.09701,0 0.175683,0.0783 0.176388,0.17568 L 4.1091855,35.07993 c 7.14e-4,0.097 -0.07796,0.17674 -0.175331,0.17745 -3.44e-4,0 -7.14e-4,0 -0.0011,0 z"
       fill="#5d5ea8"
       id="path128"
       style="isolation:isolate;stroke-width:0.352777" />
    <path
       d="m 0.59230355,31.83155 c -0.09701,0 -0.176036,-0.0783 -0.176389,-0.17533 -3.53e-4,-0.0974 0.07832,-0.17674 0.175684,-0.17745 L 41.21713,31.2911 c 0,0 2.7e-4,0 8e-4,0 0.0974,0 0.17603,0.0787 0.17639,0.17568 2.6e-4,0.0974 -0.078,0.17674 -0.17569,0.17709 L 0.59300955,31.83155 c 0,0 -3.53e-4,0 -7.06e-4,0 z"
       fill="#5d5ea8"
       id="path130"
       style="isolation:isolate;stroke-width:0.352777" />
    <path
       d="m 47.38087,22.12558 c -0.0963,0 -0.17463,-0.0769 -0.17639,-0.17322 L 46.80937,0.60154921 c -0.002,-0.097 0.0759,-0.1778 0.17321,-0.17957 0.091,-0.0162 0.1778,0.0759 0.17957,0.17357 L 47.55726,21.94601 c 0.002,0.0974 -0.0759,0.1778 -0.17322,0.17957 -10e-4,0 -0.002,0 -0.003,0 z"
       fill="#5d5ea8"
       id="path132"
       style="isolation:isolate;stroke-width:0.352777" />
    <path
       d="m 49.07879,2.7326792 c -2.7e-4,0 -10e-4,0 -10e-4,0 l -17.91205,-0.15064 c -0.0974,-7.1e-4 -0.17569,-0.0804 -0.17498,-0.17745 7.9e-4,-0.0974 0.0797,-0.17533 0.17639,-0.17533 2.6e-4,0 0.001,0 0.001,0 l 17.91202,0.15064 c 0.0977,7.1e-4 0.17569,0.0808 0.17498,0.1778 -7.9e-4,0.097 -0.0794,0.17498 -0.17639,0.17498 z"
       fill="#5d5ea8"
       id="path134"
       style="isolation:isolate;stroke-width:0.352777" />
  </g>
</svg>
