<?xml version="1.0" encoding="UTF-8" standalone="no"?>
<svg
   xmlns:dc="http://purl.org/dc/elements/1.1/"
   xmlns:cc="http://creativecommons.org/ns#"
   xmlns:rdf="http://www.w3.org/1999/02/22-rdf-syntax-ns#"
   xmlns:svg="http://www.w3.org/2000/svg"
   xmlns="http://www.w3.org/2000/svg"
   xmlns:sodipodi="http://sodipodi.sourceforge.net/DTD/sodipodi-0.dtd"
   xmlns:inkscape="http://www.inkscape.org/namespaces/inkscape"
   width="120mm"
   height="29mm"
   viewBox="0 0 120 29"
   version="1.1"
   id="svg109"
   inkscape:version="1.0.1 (3bc2e813f5, 2020-09-07)"
   sodipodi:docname="loader.svg">
  <defs
     id="defs103" />
  <sodipodi:namedview
     id="base"
     pagecolor="#ffffff"
     bordercolor="#666666"
     borderopacity="1.0"
     inkscape:pageopacity="0.0"
     inkscape:pageshadow="2"
     inkscape:zoom="1.979899"
     inkscape:cx="267.93994"
     inkscape:cy="170.82589"
     inkscape:document-units="mm"
     inkscape:current-layer="layer1"
     inkscape:document-rotation="0"
     showgrid="false"
     inkscape:window-width="1920"
     inkscape:window-height="1017"
     inkscape:window-x="-8"
     inkscape:window-y="-8"
     inkscape:window-maximized="1" />
  <metadata
     id="metadata106">
    <rdf:RDF>
      <cc:Work
         rdf:about="">
        <dc:format>image/svg+xml</dc:format>
        <dc:type
           rdf:resource="http://purl.org/dc/dcmitype/StillImage" />
        <dc:title></dc:title>
      </cc:Work>
    </rdf:RDF>
  </metadata>
  <g
     inkscape:label="Шар 1"
     inkscape:groupmode="layer"
     id="layer1">
    <g
       transform="matrix(0.35277777,0,0,-0.35277777,-5.6131041,102.31645)"
       id="g108">
      <text
         id="text112"
         style="font-variant:normal;font-weight:500;font-size:27.6391px;font-family:Jost;-inkscape-font-specification:Jost-Medium;writing-mode:lr-tb;fill:#57c490;fill-opacity:1;fill-rule:nonzero;stroke:none"
         transform="matrix(1,0,0,-1,145.613,255.013)"><tspan
           id="tspan110"
           y="0"
           x="0 20.370016 39.440311 60.225521 68.323166 84.740791 98.642181 115.75079">ПАМ'ЯТКИ</tspan></text>
    </g>
    <g
       transform="matrix(0.35277777,0,0,-0.35277777,-5.6131041,102.31645)"
       id="g114">
      <text
         id="text118"
         style="font-variant:normal;font-weight:500;font-size:46.2387px;font-family:Jost;-inkscape-font-specification:Jost-Medium;writing-mode:lr-tb;fill:#504ba8;fill-opacity:1;fill-rule:nonzero;stroke:none"
         transform="matrix(1,0,0,-1,143.922,210.196)"><tspan
           id="tspan116"
           y="0"
           x="0 34.077923 71.161362 103.62034 122.25417 154.15887 181.90208">ПОЛТАВИ</tspan></text>
    </g>
    <path
       id="path120"
       style="fill:#504ba8;fill-opacity:1;fill-rule:nonzero;stroke:none;stroke-width:0.0352777"
       d="m 7.9681349,29.045203 h -2.660968 c -0.09758,0 -0.176389,-0.079 -0.176389,-0.17639 0,-0.0977 0.07881,-0.17639 0.176389,-0.17639 h 2.484579 v -17.75354 c 0,-0.0977 0.07899,-0.17639 0.176389,-0.17639 h 0.9505952 l 5.5255229,0.67381 v -1.13101 c 0,-0.079 0.05235,-0.14817 0.127882,-0.16969 l 1.773802,-0.5065901 c 0.02826,-0.008 0.05789,-0.009 0.08611,-0.003 l 8.743244,1.9007701 c 0.08103,0.0173 0.138925,0.0889 0.138925,0.17216 v 1.45697 c 0,0.0977 -0.07899,0.17639 -0.17639,0.17639 -0.09744,0 -0.176389,-0.0787 -0.176389,-0.17639 v -1.31481 L 16.40037,9.9802029 14.797031,10.438113 v 1.19732 c 0,0.0508 -0.02177,0.0988 -0.05969,0.13194 -0.03775,0.0339 -0.08819,0.0512 -0.138078,0.043 l -5.7020529,-0.69673 -0.7526862,10e-4 v 17.75389 c 0,0.0974 -0.07895,0.17639 -0.176389,0.17639" />
    <path
       id="path122"
       style="fill:#504ba8;fill-opacity:1;fill-rule:nonzero;stroke:none;stroke-width:0.0352777"
       d="m 26.72187,14.536513 c -0.02963,0 -0.05927,-0.007 -0.08682,-0.0226 l -4.320822,-2.44052 -5.700959,0.9398 -2.816437,0.002 c -0.09744,0 -0.176389,-0.0787 -0.176389,-0.17639 0,-0.0974 0.07895,-0.17639 0.176389,-0.17639 h 2.787897 l 5.733626,-0.94756 c 0.03884,-0.007 0.08061,7.2e-4 0.115323,0.0205 l 4.37501,2.4705 c 0.08474,0.048 0.114792,0.15593 0.06685,0.2406 -0.03239,0.0572 -0.09236,0.0896 -0.15367,0.0896" />
    <path
       id="path124"
       style="fill:#504ba8;fill-opacity:1;fill-rule:nonzero;stroke:none;stroke-width:0.0352777"
       d="m 10.249231,29.045203 c -0.09758,0 -0.176389,-0.079 -0.176389,-0.17639 v -10.89766 c 0,-0.0974 0.07881,-0.17639 0.176389,-0.17639 h 3.104303 c 0.0974,0 0.176389,0.079 0.176389,0.17639 v 10.58086 c 0,0.0974 -0.07899,0.17639 -0.176389,0.17639 -0.09758,0 -0.176388,-0.079 -0.176388,-0.17639 V 18.147543 H 10.42562 v 10.72127 c 0,0.0974 -0.07899,0.17639 -0.176389,0.17639" />
    <path
       id="path126"
       style="fill:#504ba8;fill-opacity:1;fill-rule:nonzero;stroke:none;stroke-width:0.0352777"
       d="m 16.521373,29.045203 c -0.04219,0 -0.08311,-0.0152 -0.1155,-0.043 -0.03859,-0.0335 -0.06089,-0.0822 -0.06089,-0.13335 v -14.88899 c 0,-0.0512 0.02205,-0.0998 0.06047,-0.13299 0.03902,-0.0335 0.08961,-0.0469 0.1403,-0.0416 l 8.616455,1.20403 c 0.08724,0.012 0.152013,0.0868 0.152013,0.17462 v 12.92437 c 0,0.0935 -0.07278,0.17074 -0.165806,0.17639 l -1.393719,0.0843 c -0.0477,0.005 -0.09663,-0.0145 -0.131763,-0.0476 -0.03542,-0.0335 -0.05539,-0.0801 -0.05539,-0.12841 v -11.51431 l -5.307118,-0.57996 v 8.40422 l 1.589158,-0.0691 -0.04106,-6.25052 c 0.04314,-0.242 0.09274,-0.84454 -0.15434,-1.13171 -0.105269,-0.12347 -0.260985,-0.18132 -0.464926,-0.17074 -0.10474,-0.004 -0.179564,-0.073 -0.183445,-0.16969 -0.0033,-0.0977 0.07236,-0.17956 0.169651,-0.18309 0.320252,-0.0138 0.569419,0.0868 0.747183,0.29422 0.408305,0.4766 0.242782,1.35678 0.235621,1.39382 l 0.04523,6.38563 c 5.29e-4,0.0949 -0.07415,0.17322 -0.168946,0.17745 l -1.943064,0.0843 c -0.04918,-3.4e-4 -0.09507,-0.0155 -0.129505,-0.0487 -0.03475,-0.0335 -0.05433,-0.0794 -0.05433,-0.1277 v -8.78523 c 0,-0.0497 0.02138,-0.0977 0.0586,-0.13123 0.03747,-0.0335 0.08597,-0.0487 0.136948,-0.0441 l 5.660037,0.61877 c 0.08915,0.01 0.157092,0.0854 0.157092,0.17533 v 11.48468 l 1.041117,-0.0628 v -12.6051 l -8.263677,-1.15464 v 14.48223 l 1.535818,-0.22436 c 0.09465,-0.0109 0.185596,0.0526 0.200095,0.14922 0.01376,0.0963 -0.05278,0.18592 -0.14926,0.20003 l -1.737713,0.25364 c -0.0085,0.001 -0.01679,0.002 -0.02533,0.002" />
    <path
       id="path128"
       style="fill:#504ba8;fill-opacity:1;fill-rule:nonzero;stroke:none;stroke-width:0.0352777"
       d="m 23.02596,24.694743 c -0.0974,0 -0.176389,-0.079 -0.176389,-0.17639 v -6.5472 c 0,-0.57044 -0.08019,-0.87947 -0.502708,-0.87947 -0.481471,0 -0.674794,0.58067 -0.707179,0.69215 v 6.73452 c 0,0.0974 -0.07899,0.17639 -0.176389,0.17639 -0.09744,0 -0.176388,-0.079 -0.176388,-0.17639 v -6.75851 c 0,-0.0138 0.0016,-0.0279 0.0048,-0.0413 0.0099,-0.0402 0.246944,-0.97967 1.055158,-0.97967 0.855486,0 0.855486,0.8636 0.855486,1.23226 v 6.5472 c 0,0.0974 -0.07895,0.17639 -0.176389,0.17639" />
    <path
       id="path130"
       style="fill:#504ba8;fill-opacity:1;fill-rule:nonzero;stroke:none;stroke-width:0.0352777"
       d="m 15.222833,14.536513 c -0.0096,0 -0.0193,-7.2e-4 -0.02893,-0.003 l -6.0082619,-0.99268 c -0.09603,-0.0155 -0.161219,-0.10619 -0.145379,-0.2025 0.01559,-0.0963 0.108197,-0.16227 0.202565,-0.14534 l 6.0082639,0.99272 c 0.09603,0.0159 0.161219,0.10618 0.14538,0.20249 -0.01408,0.0864 -0.0889,0.14782 -0.173638,0.14782" />
    <path
       id="path132"
       style="fill:#504ba8;fill-opacity:1;fill-rule:nonzero;stroke:none;stroke-width:0.0352777"
       d="m 7.0600139,10.924773 c -6.61e-4,0 -0.0018,0 -0.0027,0 -0.09716,-10e-4 -0.175013,-0.0815 -0.173637,-0.17886 0.0017,-0.121 0.06865,-2.9809701 2.2313202,-4.4513501 2.1884569,-1.48802 4.8398279,-2.02106 5.2367029,-2.0574 0.178718,-0.0159 0.385693,-0.11183 0.605226,-0.21343 0.296016,-0.13688 0.605226,-0.2787 0.904663,-0.25083 0.281835,0.0254 0.554002,0.16828 0.79375,0.29457 0.192264,0.1009 0.374156,0.1965 0.519113,0.21273 0.294217,0.0328 3.890892,0.8322 5.199768,2.25213 1.264355,1.3709 1.815288,3.9034901 1.837902,4.0103801 0.01252,0.0589 -0.0058,0.1203 -0.04851,0.16228 -0.04272,0.0427 -0.104068,0.0593 -0.162629,0.0469 L 15.929815,8.9439029 9.8437281,10.287283 c -0.09606,0.0215 -0.18923,-0.0392 -0.21015,-0.13441 -0.02095,-0.0953 0.03926,-0.1890901 0.134338,-0.2099001 l 6.1244339,-1.35185 c 0.02508,-0.005 0.05126,-0.005 0.07648,0 l 7.83276,1.7543701 C 23.623827,9.6565129 23.080197,7.8178329 22.115138,6.7711429 c -1.161944,-1.26012 -4.502468,-2.08774 -4.979529,-2.1403 -0.211526,-0.0236 -0.421675,-0.13406 -0.644243,-0.25118 -0.221156,-0.11606 -0.449933,-0.23601 -0.661458,-0.25541 -0.212478,-0.0183 -0.471276,0.10195 -0.724852,0.21978 -0.237032,0.10971 -0.482036,0.22296 -0.721819,0.24483 -0.382411,0.0346 -2.942802,0.55139 -5.0698049,1.99743 -2.0125972,1.36877 -2.0766972,4.1370201 -2.0769792,4.1648901 -0.0014,0.0967 -0.08019,0.17357 -0.176389,0.17357" />
    <path
       id="path134"
       style="fill:#504ba8;fill-opacity:1;fill-rule:nonzero;stroke:none;stroke-width:0.0352777"
       d="M 1.4847489,28.791553 H 0.48748187 c -0.09758,0 -0.176389,-0.079 -0.176389,-0.17639 v -14.7514 c 0,-0.0924 0.07094,-0.16898 0.163019,-0.17604 l 6.57239103,-0.49636 c 0.100753,-0.008 0.182068,0.066 0.189618,0.16264 0.0072,0.0974 -0.06558,0.18203 -0.162737,0.18979 l -6.40951303,0.48366 v 14.41132 H 1.3083609 v -10.93187 c 0,-0.0977 0.07899,-0.17639 0.176388,-0.17639 h 3.421416 c 0.09716,0 0.175683,0.078 0.176388,0.17533 l 0.04202,7.01145 c 4.24e-4,0.0469 -0.01834,0.0921 -0.05126,0.12524 -0.03323,0.0335 -0.07828,0.0522 -0.12513,0.0522 h -1.858293 c -0.09687,0 -0.175295,-0.078 -0.176389,-0.17462 l -0.04244,-4.73111 c -2.91e-4,-0.0483 0.01902,-0.0945 0.05387,-0.12841 0.03433,-0.0328 0.07927,-0.0512 0.129823,-0.0494 l 1.055158,0.0423 c 0.09716,0.004 0.173108,0.0861 0.169227,0.18345 -0.0037,0.097 -0.08682,0.17145 -0.183691,0.16933 l -0.869809,-0.0353 0.03884,4.37092 h 1.506361 l -0.03997,-6.65868 h -3.069731 v 10.93187 c 0,0.0974 -0.07881,0.17639 -0.176389,0.17639" />
    <path
       id="path136"
       style="fill:#504ba8;fill-opacity:1;fill-rule:nonzero;stroke:none;stroke-width:0.0352777"
       d="m 26.109344,28.369283 c -0.0448,0 -0.08781,-0.0169 -0.120581,-0.048 -0.03584,-0.0332 -0.05581,-0.0801 -0.05581,-0.12841 v -11.10827 c 0,-0.0977 0.07881,-0.17639 0.17639,-0.17639 0.0974,0 0.176387,0.0787 0.176387,0.17639 v 10.92024 l 7.630266,-0.48472 v -9.39412 l -1.253419,-0.1651 -0.04127,7.10741 c -7.93e-4,0.0917 -0.07161,0.16793 -0.163689,0.17498 l -5.195287,0.3803 c -0.0496,0.006 -0.09716,-0.0138 -0.132821,-0.0469 -0.03598,-0.0335 -0.05623,-0.0804 -0.05623,-0.12912 v -8.11001 c 0,-0.0497 0.02135,-0.0977 0.05856,-0.13123 0.0368,-0.0335 0.08682,-0.049 0.136703,-0.0441 l 1.56284,0.16933 c 0.08957,0.01 0.157375,0.0854 0.157375,0.17533 v 6.83507 h 0.661035 v -6.66644 c 0,-0.049 0.02088,-0.096 0.05687,-0.12947 0.03634,-0.0335 0.08573,-0.0494 0.133702,-0.0462 l 1.055865,0.0843 c 0.09067,0.007 0.161219,0.0826 0.162277,0.17357 l 0.08255,6.45759 h 0.3683 l 0.04127,-6.41385 c 7.94e-4,-0.0974 0.08008,-0.18556 0.177448,-0.17533 0.09737,7.2e-4 0.176035,0.0801 0.175332,0.17745 l -0.04233,6.58883 c -7.93e-4,0.0974 -0.07973,0.17568 -0.17639,0.17568 h -0.718256 c -0.09631,0 -0.174977,-0.0776 -0.176387,-0.17427 l -0.0822,-6.47065 -0.705202,-0.0564 v 6.65162 c 0,0.0974 -0.07902,0.17639 -0.17639,0.17639 h -1.013883 c -0.09758,0 -0.17639,-0.079 -0.17639,-0.17639 v -6.85306 l -1.209928,-0.13123 v 7.72372 l 4.843534,-0.35455 0.04127,-7.1441 c 2.65e-4,-0.0508 0.02222,-0.0988 0.06068,-0.13194 0.03775,-0.0332 0.08678,-0.048 0.138641,-0.0423 l 1.60514,0.21132 c 0.08784,0.0116 0.153459,0.0864 0.153459,0.17497 v 9.7148 c 0,0.0931 -0.07232,0.17039 -0.165455,0.17603 l -7.982971,0.50695 c -0.0034,2.6e-4 -0.0073,2.6e-4 -0.01101,2.6e-4" />
    <path
       id="path138"
       style="fill:#504ba8;fill-opacity:1;fill-rule:nonzero;stroke:none;stroke-width:0.0352777"
       d="m 34.229264,16.500423 c -0.0071,0 -0.01482,-3.4e-4 -0.02223,-0.001 l -7.222665,-0.91863 c -0.09645,-0.0123 -0.164925,-0.10054 -0.152683,-0.19756 0.01257,-0.0963 0.09966,-0.16545 0.197485,-0.15275 l 7.148229,0.90981 0.296334,-0.23883 -7.829725,-3.85374 c -0.08502,-0.0416 -0.121534,-0.14288 -0.08336,-0.22931 0.02797,-0.0632 0.700722,-1.55046 2.226627,-2.1826301 1.463358,-0.60608 3.038158,-0.79481 3.446323,-0.79481 0.365828,0 3.63996,0.71543 4.665485,2.2313201 0.983898,1.45521 1.162402,2.82857 1.169458,2.88607 0.0071,0.0564 -0.01376,0.11254 -0.05539,0.15134 -0.04163,0.0381 -0.09807,0.0543 -0.154871,0.0434 l -4.155721,-0.84984 -2.4765,0.24024 c -0.03352,0.002 -0.06597,-0.003 -0.09525,-0.0173 l -1.108075,-0.54927 c -0.07091,-0.0349 -0.109715,-0.11218 -0.0956,-0.1898 0.0141,-0.0776 0.07796,-0.13617 0.156281,-0.14358 l 3.217685,-0.32032 c -0.127703,-0.86254 -0.417687,-2.13995 -0.748945,-2.3819501 -0.07867,-0.0571 -0.09596,-0.16793 -0.03846,-0.2466 0.05786,-0.0783 0.168275,-0.0952 0.24624,-0.0381 0.593373,0.4335701 0.884415,2.5604701 0.91581,2.8014101 0.0064,0.0473 -0.0071,0.0952 -0.03669,0.13265 -0.02963,0.0374 -0.07338,0.061 -0.12065,0.0656 l -2.788708,0.27728 0.512585,0.254 2.452865,-0.23812 c 0.01728,-10e-4 0.03493,-7.2e-4 0.05221,0.003 l 3.926417,0.80292 c -0.0956,-0.4505 -0.370769,-1.45592 -1.0668,-2.48497 -0.916869,-1.3557201 -4.055534,-2.0764501 -4.373385,-2.0764501 -0.373592,0 -1.914525,0.18944 -3.31142,0.768 -1.124055,0.4660201 -1.7556,1.4675501 -1.962327,1.8482001 l 7.917463,3.89714 c 0.05433,0.0268 0.09102,0.079 0.09772,0.13899 0.0063,0.0596 -0.01799,0.11889 -0.06491,0.15663 l -0.57009,0.45932 c -0.0314,0.025 -0.07056,0.0388 -0.110773,0.0388" />
    <path
       id="path140"
       style="fill:#504ba8;fill-opacity:1;fill-rule:nonzero;stroke:none;stroke-width:0.0352777"
       d="m 39.37206,17.091683 c -0.0071,0 -0.01341,-3.5e-4 -0.02045,-0.001 l -3.421239,-0.39472 c -0.09702,-0.0113 -0.166159,-0.0988 -0.155224,-0.19579 0.0113,-0.0967 0.100542,-0.16299 0.195792,-0.15487 l 3.376435,0.38946 0.601488,-0.24412 -2.078215,-1.24213 -2.121606,0.65264 c -0.09454,0.0303 -0.19191,-0.0233 -0.220485,-0.11642 -0.02893,-0.0935 0.02328,-0.19191 0.116416,-0.22048 l 2.196749,-0.67557 c 0.04833,-0.0152 0.09913,-0.008 0.14252,0.0169 l 2.44969,1.46332 c 0.05715,0.0346 0.09031,0.0984 0.08573,0.1651 -0.0053,0.067 -0.04763,0.12488 -0.109715,0.14993 l -0.97155,0.39476 c -0.02117,0.008 -0.04374,0.013 -0.06632,0.013" />
    <path
       id="path142"
       style="fill:#504ba8;fill-opacity:1;fill-rule:nonzero;stroke:none;stroke-width:0.0352777"
       d="m 38.907452,28.252863 c -0.0074,0 -0.01516,-2.6e-4 -0.02257,-0.001 l -3.716867,-0.47519 c -0.08819,-0.0113 -0.154162,-0.0861 -0.154162,-0.17498 v -8.36295 c -0.0053,-0.1083 -0.01976,-0.70132 0.225425,-0.95779 0.07867,-0.0829 0.178858,-0.12665 0.288925,-0.12665 0.451908,0 0.767643,0.48507 0.767643,1.17969 0,0.45403 0.01659,3.77966 0.02011,4.58611 h 0.555977 v -4.5862 c -0.0053,-0.10089 -0.01939,-0.65617 0.225073,-0.88582 0.08537,-0.0804 0.191206,-0.11607 0.309033,-0.10266 0.415925,0.0466 0.663927,0.49883 0.663927,1.21038 v 4.49792 c 0,0.0977 -0.07867,0.17638 -0.176387,0.17638 -0.09737,0 -0.17639,-0.0787 -0.17639,-0.17638 v -4.49792 c 0,-0.40887 -0.10795,-0.83291 -0.350308,-0.85972 -0.118534,0.0935 -0.152752,0.42333 -0.142523,0.629 l 2.64e-4,4.77132 c 0,0.0974 -0.07902,0.17639 -0.17639,0.17639 h -0.907698 c -0.09701,0 -0.176035,-0.0787 -0.176387,-0.17568 0,0 -0.02117,-4.24604 -0.02117,-4.76321 0,-0.40675 -0.155224,-0.82691 -0.414867,-0.82691 -0.0074,0 -0.01728,0 -0.03422,0.0173 -0.103717,0.10866 -0.137229,0.48542 -0.127704,0.70626 l 2.64e-4,8.21584 3.563057,0.45544 c 0.09631,0.0124 0.164745,0.10054 0.1524,0.1972 -0.0113,0.0889 -0.08714,0.15417 -0.174625,0.15417" />
    <path
       id="path144"
       style="fill:#504ba8;fill-opacity:1;fill-rule:nonzero;stroke:none;stroke-width:0.0352777"
       d="m 38.907097,28.252863 c -0.09737,0 -0.176387,-0.079 -0.176387,-0.17639 v -9.85167 c 0,-0.0974 0.07902,-0.17639 0.176387,-0.17639 0.09772,0 0.17639,0.079 0.17639,0.17639 v 9.85167 c 0,0.0974 -0.07867,0.17639 -0.17639,0.17639" />
    <path
       id="path146"
       style="fill:#504ba8;fill-opacity:1;fill-rule:nonzero;stroke:none;stroke-width:0.0352777"
       d="m 0.48748187,13.301083 c -0.05747,0 -0.114124,-0.0282 -0.147885,-0.0804 -0.05306,-0.0815 -0.02988,-0.19085 0.05168,-0.24377 l 1.17079903,-0.76095 v -1.12183 H 0.72447587 c -0.0726,0 -0.137795,-0.0444 -0.164394,-0.11183 -0.02646,-0.0681 -0.0085,-0.14499 0.04452,-0.19403 L 2.2940899,9.2254729 c 0.02452,-0.0222 0.05468,-0.0381 0.08749,-0.0438 l 3.632517,-0.67592 c 0.08407,-0.0152 0.163019,0.0286 0.194981,0.10478 0.03196,0.0765 0.0069,0.16474 -0.06089,0.21237 l -1.792147,1.2661201 2.043218,-0.0656 c 0.103611,-10e-4 0.178718,0.0737 0.181893,0.17074 0.0032,0.097 -0.07331,0.17886 -0.170886,0.18204 l -2.631087,0.0843 c -0.08569,-0.006 -0.147708,-0.0469 -0.172508,-0.1203 -0.0248,-0.0741 0.0018,-0.15522 0.06544,-0.20002 l 1.614381,-1.1405301 -2.79026,0.51929 -1.321118,1.2223701 h 0.563351 c 0.0974,0 0.176389,0.079 0.176389,0.17639 v 1.39383 c 0,0.0596 -0.03048,0.11536 -0.08036,0.14781 l -1.25098503,0.81315 c -0.0296,0.019 -0.06297,0.0286 -0.09603,0.0286" />
    <path
       id="path148"
       style="fill:#504ba8;fill-opacity:1;fill-rule:nonzero;stroke:none;stroke-width:0.0352777"
       d="m 4.6105719,12.529913 c -0.04343,0 -0.08544,-0.0162 -0.118251,-0.0455 -0.03722,-0.0332 -0.05814,-0.0808 -0.05814,-0.13088 v -1.45168 c 0,-0.0974 0.07881,-0.17639 0.176389,-0.17639 0.0974,0 0.176388,0.079 0.176388,0.17639 v 1.25624 l 2.254885,-0.23284 c 0.0926,-0.0113 0.183551,0.06 0.193605,0.15699 0.0099,0.097 -0.06036,0.18344 -0.157092,0.19332 l -2.449618,0.2533 c -0.0061,7.1e-4 -0.01224,0.001 -0.01817,0.001" />
    <path
       id="path150"
       style="fill:#504ba8;fill-opacity:1;fill-rule:nonzero;stroke:none;stroke-width:0.0352777"
       d="m 9.2143221,29.045203 c -0.09758,0 -0.176389,-0.079 -0.176389,-0.17639 v -14.14956 c 0,-0.0515 0.02233,-0.10019 0.06089,-0.13371 0.0393,-0.0332 0.0907,-0.0466 0.141252,-0.0413 l 6.0082639,0.88724 c 0.08654,0.0131 0.15046,0.0871 0.15046,0.17462 v 13.11452 c 0,0.0497 -0.02092,0.0974 -0.05814,0.13088 -0.03722,0.0335 -0.08682,0.0501 -0.136172,0.0445 l -1.024149,-0.10548 c -0.09024,-0.009 -0.158468,-0.085 -0.158468,-0.17533 v -11.94047 l -3.796489,-0.51399 c -0.09648,-0.0131 -0.164006,-0.1016 -0.150883,-0.19827 0.01281,-0.0967 0.100154,-0.16721 0.198438,-0.15098 l 3.94917,0.53445 c 0.08735,0.0116 0.152542,0.0864 0.152542,0.17463 v 11.93553 l 0.671371,0.0691 v -12.76667 l -5.6553099,-0.83538 v 13.94566 c 0,0.0974 -0.07899,0.17639 -0.176389,0.17639" />
    <path
       id="path152"
       style="fill:#504ba8;fill-opacity:1;fill-rule:nonzero;stroke:none;stroke-width:0.0352777"
       d="m 29.878996,151.97812 c -0.09674,0 -0.175701,-0.0783 -0.176389,-0.17568 L 29.473852,117.5837 c -6.88e-4,-0.097 0.07786,-0.17639 0.175426,-0.1771 2.75e-4,0 6.88e-4,0 9.63e-4,0 0.09688,0 0.175701,0.078 0.176389,0.17498 l 0.228773,34.21909 c 6.69e-4,0.097 -0.07789,0.17675 -0.175302,0.17745 -4.16e-4,0 -6.91e-4,0 -0.0011,0" />
    <path
       id="path156"
       style="fill:#504ba8;fill-opacity:1;fill-rule:nonzero;stroke:none;stroke-width:0.0352777"
       d="m 41.351847,22.032683 c -0.09631,0 -0.174625,-0.0769 -0.176387,-0.17321 L 40.780347,0.50865289 c -0.0019,-0.097 0.07585,-0.1778 0.173215,-0.17956 0.09102,-0.0159 0.1778,0.0758 0.179565,0.17356 l 0.39511,21.35047011 c 0.0019,0.0974 -0.07585,0.1778 -0.173215,0.17956 -0.0011,0 -0.0021,0 -0.0032,0" />
    <path
       id="path158"
       style="fill:#504ba8;fill-opacity:1;fill-rule:nonzero;stroke:none;stroke-width:0.0352777"
       d="m 43.049768,2.6397829 c -2.64e-4,0 -0.0011,0 -0.0013,0 l -17.912015,-0.15063 c -0.09744,-7.1e-4 -0.175718,-0.0804 -0.175014,-0.1778 7.93e-4,-0.097 0.07966,-0.17498 0.176389,-0.17498 2.65e-4,0 0.0011,0 0.0013,0 l 17.911975,0.15063 c 0.09772,7.1e-4 0.175683,0.0808 0.174976,0.1778 -7.93e-4,0.0974 -0.07937,0.17498 -0.176387,0.17498" />
  </g>
</svg>
